<?xml version="1.0" encoding="iso-8859-1"?>
<!-- Generator: Adobe Illustrator 16.0.0, SVG Export Plug-In . SVG Version: 6.00 Build 0)  -->
<!DOCTYPE svg PUBLIC "-//W3C//DTD SVG 1.1//EN" "http://www.w3.org/Graphics/SVG/1.1/DTD/svg11.dtd">
<svg version="1.1" id="Ebene_1" xmlns="http://www.w3.org/2000/svg" xmlns:xlink="http://www.w3.org/1999/xlink" x="0px" y="0px"
	 width="24px" height="24px" viewBox="0 0 24 24" style="enable-background:new 0 0 24 24;" xml:space="preserve">
<g>
	<g>
		<path style="fill:#C8C5D8;" d="M24,5.7c0-0.1,0-0.3-0.1-0.4C23.8,4.4,23.2,4,22.1,4H2.6C1.7,4,0.7,4.3,0.3,5c0,0-0.1,0-0.1,0.1
			C0,5.3,0,5.5,0,5.7c0,0.1,0,0.1,0,0.2v12c0,1.199,1.4,2.6,2.6,2.6h19.5c1.2,0,1.9-1.4,1.9-2.6v-12C24,5.8,24,5.7,24,5.7z M2.6,5.5
			h19.5L12,13.6l-10.1-8C2.1,5.5,2.4,5.5,2.6,5.5z M22.1,19H2.6c-0.4,0-1.1-0.7-1.1-1.1V7.1l10,8c0.1,0.101,0.3,0.2,0.5,0.2
			s0.4-0.1,0.5-0.2l10-8v10.7C22.5,18.3,22.5,19,22.1,19z"/>
	</g>
</g>
</svg>
