<?xml version="1.0" encoding="iso-8859-1"?>
<!-- Generator: Adobe Illustrator 16.0.0, SVG Export Plug-In . SVG Version: 6.00 Build 0)  -->
<!DOCTYPE svg PUBLIC "-//W3C//DTD SVG 1.1//EN" "http://www.w3.org/Graphics/SVG/1.1/DTD/svg11.dtd">
<svg version="1.1" id="Ebene_1" xmlns="http://www.w3.org/2000/svg" xmlns:xlink="http://www.w3.org/1999/xlink" x="0px" y="0px"
	 width="24px" height="24px" viewBox="0 0 24 24" style="enable-background:new 0 0 24 24;" xml:space="preserve">
<path style="fill:#C8C5D8;" d="M12,1.5c2.5,0,5.2,2.1,5.2,3.7V9c0,1.4-0.601,4.2-2.2,5.5c-0.4,0.3-0.6,0.8-0.6,1.4
	c0.1,0.5,0.399,1,0.899,1.199l6.5,3.101c0.101,0,0.601,0.1,0.601,0.899v1.5h-21V21c0-0.6,0.4-0.8,0.6-0.9L8.7,17
	c0.5-0.2,0.8-0.7,0.9-1.2s-0.1-1-0.5-1.399c-1.6-1.301-2.3-4-2.3-5.5V5.3C6.7,3.7,9.5,1.5,12,1.5 M12,0C8.7,0,5.2,2.8,5.2,5.3V9
	c0,1.6,0.7,5,2.8,6.6L1.4,18.7c0,0-1.5,0.7-1.5,1.5v2.3C0,23.3,0.7,24,1.5,24h21c0.8,0,1.5-0.7,1.5-1.5v-2.3c0-0.9-1.5-1.5-1.5-1.5
	l-6.5-3c2-1.7,2.7-4.9,2.7-6.7V5.3C18.7,2.8,15.3,0,12,0L12,0z"/>
</svg>
