<?xml version="1.0" encoding="iso-8859-1"?>
<!-- Generator: Adobe Illustrator 16.0.0, SVG Export Plug-In . SVG Version: 6.00 Build 0)  -->
<!DOCTYPE svg PUBLIC "-//W3C//DTD SVG 1.1//EN" "http://www.w3.org/Graphics/SVG/1.1/DTD/svg11.dtd">
<svg version="1.1" id="Ebene_1" xmlns="http://www.w3.org/2000/svg" xmlns:xlink="http://www.w3.org/1999/xlink" x="0px" y="0px"
	 width="30px" height="30px" viewBox="0 0 30 30" style="enable-background:new 0 0 30 30;" xml:space="preserve">
<path style="fill:#FFFFFF;" d="M1,0h4v30H1V0z"/>
<path style="fill:#FFFFFF;" d="M25.6,5.7C24.2,4.6,21.7,4,18.3,4H10v22.4h3.8v-7.5h5l5.3,7.5H28.9L23,18.2c3.2-1,4.8-3.3,4.8-7
	C27.9,8.7,27.1,6.9,25.6,5.7z M18.5,15.4h-4.7v-8h4.8c2,0,3.4,0.3,4.2,0.8s1.2,1.5,1.2,3s-0.4,2.5-1.2,3.2
	C22.1,15.1,20.6,15.4,18.5,15.4L18.5,15.4z"/>
</svg>
