<?xml version="1.0" encoding="iso-8859-1"?>
<!-- Generator: Adobe Illustrator 16.0.0, SVG Export Plug-In . SVG Version: 6.00 Build 0)  -->
<!DOCTYPE svg PUBLIC "-//W3C//DTD SVG 1.1//EN" "http://www.w3.org/Graphics/SVG/1.1/DTD/svg11.dtd">
<svg version="1.1" id="Ebene_1" xmlns="http://www.w3.org/2000/svg" xmlns:xlink="http://www.w3.org/1999/xlink" x="0px" y="0px"
	 width="24px" height="24px" viewBox="0 0 24 24" style="enable-background:new 0 0 24 24;" xml:space="preserve">
<g>
	<g>
		<path style="fill:#5BD083;" d="M12,0C5.4,0,0,5.4,0,12c0,6.6,5.4,12,12,12c6.6,0,12-5.4,12-12C24,5.4,18.6,0,12,0z M12,22.5
			C6.2,22.5,1.5,17.8,1.5,12S6.2,1.5,12,1.5S22.5,6.2,22.5,12S17.8,22.5,12,22.5z M16.8,7.6l-7,7.1l-3.2-3.2c-0.3-0.3-0.8-0.3-1.1,0
			s-0.3,0.8,0,1.1l3.7,3.7c0.3,0.3,0.8,0.3,1.1,0c0,0,0,0,0-0.1l7.5-7.6c0.3-0.3,0.3-0.8,0-1.1C17.6,7.3,17.1,7.3,16.8,7.6z"/>
	</g>
</g>
</svg>
